<?xml version="1.0" standalone="no"?>
<!DOCTYPE svg PUBLIC "-//W3C//DTD SVG 20010904//EN"
 "http://www.w3.org/TR/2001/REC-SVG-20010904/DTD/svg10.dtd">
<svg version="1.0" xmlns="http://www.w3.org/2000/svg"
 width="260.000000pt" height="260.000000pt" viewBox="0 0 260.000000 260.000000"
 preserveAspectRatio="xMidYMid meet">
<metadata>
Created by potrace 1.11, written by Peter Selinger 2001-2013
</metadata>
<g transform="translate(0.000000,260.000000) scale(0.100000,-0.100000)"
fill="#000000" stroke="none">
<path d="M799 2016 c-152 -32 -278 -105 -392 -226 -133 -141 -191 -292 -191
-495 0 -142 15 -211 76 -335 35 -70 59 -102 137 -181 79 -78 111 -102 181
-137 124 -61 193 -76 335 -76 142 0 211 15 335 76 70 35 102 59 181 137 78 79
102 111 137 181 61 124 76 193 76 335 0 142 -15 211 -76 335 -35 70 -59 102
-137 181 -79 78 -111 102 -181 137 -47 23 -112 49 -145 57 -83 23 -254 28
-336 11z"/>
<path d="M2195 1940 c-18 -20 -415 -1248 -415 -1285 0 -12 9 -31 20 -43 41
-44 109 -40 136 8 18 32 404 1244 404 1269 0 10 -9 30 -21 45 -26 34 -96 37
-124 6z"/>
</g>
</svg>
