<?xml version="1.0" standalone="no"?>
<!DOCTYPE svg PUBLIC "-//W3C//DTD SVG 20010904//EN"
 "http://www.w3.org/TR/2001/REC-SVG-20010904/DTD/svg10.dtd">
<svg version="1.0" xmlns="http://www.w3.org/2000/svg"
 width="354.000000pt" height="354.000000pt" viewBox="0 0 354.000000 354.000000"
 preserveAspectRatio="xMidYMid meet">
<metadata>
Created by potrace 1.11, written by Peter Selinger 2001-2013
</metadata>
<g transform="translate(0.000000,354.000000) scale(0.100000,-0.100000)"
fill="#000000" stroke="none">
<path d="M1440 3357 c-82 -122 -152 -200 -221 -246 -51 -34 -69 -41 -108 -40
-44 1 -111 -7 -115 -13 -57 -77 -104 -157 -150 -252 -31 -66 -70 -139 -86
-162 -15 -23 -30 -57 -33 -76 -6 -42 -11 -54 -145 -328 -191 -393 -269 -571
-276 -627 -2 -20 -11 -42 -21 -49 -16 -12 -16 -15 9 -44 14 -17 28 -44 31 -58
18 -84 28 -101 97 -155 74 -58 70 -58 176 -42 42 6 53 12 58 30 4 14 23 31 56
46 60 28 74 47 83 114 11 87 75 267 103 294 19 17 26 34 27 60 0 29 4 37 22
39 18 3 26 15 39 64 16 57 18 59 30 37 7 -13 13 -40 14 -59 0 -24 11 -48 35
-78 19 -24 37 -52 40 -62 12 -38 199 -34 381 9 72 17 157 31 188 31 l56 0 0
-45 c0 -88 -44 -127 -172 -157 -32 -7 -58 -16 -58 -20 0 -8 52 -68 108 -123
33 -34 40 -62 22 -94 -8 -16 1 -24 58 -58 83 -49 109 -56 168 -43 132 30 267
141 334 275 42 85 46 153 20 300 -16 88 -16 101 -3 110 9 6 32 21 53 35 74 49
121 94 160 153 22 32 40 65 40 72 0 6 -12 17 -26 24 -14 6 -42 24 -62 40 -20
16 -53 34 -72 38 -23 6 -42 20 -55 41 -19 32 -22 32 -70 26 -98 -14 -97 -14
-118 40 -19 53 -41 149 -62 271 -5 32 -20 98 -36 156 -5 20 -11 59 -14 85 -14
134 -22 192 -31 239 -3 11 -9 42 -14 69 -11 54 -30 80 -74 103 -24 13 -109 41
-141 47 -39 8 -133 40 -149 52 -11 8 -25 14 -31 14 -5 -1 -35 -38 -65 -83z
m84 -879 c26 -106 50 -203 52 -216 5 -25 -1 -28 -61 -37 -81 -12 -196 -24
-298 -31 l-89 -6 12 22 c63 117 307 457 331 459 3 1 27 -86 53 -191z"/>
<path d="M2800 1684 c-34 -51 -98 -116 -138 -140 -2 -1 4 -14 14 -29 17 -26
17 -28 -1 -41 -18 -13 -18 -15 7 -41 15 -16 29 -46 33 -69 8 -53 29 -83 92
-133 39 -31 61 -41 88 -41 53 0 125 20 125 35 0 8 25 28 55 45 47 27 56 37 65
73 6 23 21 74 33 112 11 39 20 72 20 75 -1 3 -3 23 -6 45 -11 81 -12 82 -186
120 -63 14 -125 32 -136 39 -21 14 -24 11 -65 -50z"/>
<path d="M2666 1153 c-2 -2 -61 -5 -132 -8 -71 -2 -140 -6 -154 -10 -14 -3
-41 -8 -60 -11 -19 -3 -42 -7 -50 -10 -8 -3 -33 -8 -55 -10 -22 -3 -51 -8 -65
-11 -14 -2 -38 -6 -55 -8 -94 -11 -135 -17 -180 -25 -27 -6 -60 -12 -73 -15
-13 -2 -32 -7 -42 -10 -10 -3 -33 -8 -51 -10 -19 -3 -49 -9 -68 -14 -18 -6
-36 -10 -40 -9 -3 1 -13 -1 -21 -5 -8 -3 -28 -9 -45 -13 -16 -4 -34 -8 -40
-10 -5 -2 -20 -5 -33 -8 -12 -3 -26 -7 -30 -10 -5 -3 -19 -7 -33 -10 -13 -3
-39 -9 -56 -15 -18 -5 -33 -7 -33 -4 0 3 -6 1 -12 -5 -11 -9 -92 -29 -153 -38
-11 -2 -31 -5 -45 -9 -14 -3 -41 -8 -60 -11 -43 -7 -130 -26 -182 -40 -13 -3
-31 -7 -40 -7 -10 -1 -18 -5 -18 -10 0 -5 -9 -7 -20 -4 -11 3 -20 1 -20 -4 0
-5 -3 -8 -7 -7 -5 1 -20 -2 -34 -6 -14 -4 -32 -8 -40 -9 -8 -2 -18 -5 -24 -8
-5 -4 -23 -10 -40 -14 -36 -10 -34 -9 -65 -22 -14 -5 -54 -20 -90 -33 -36 -13
-75 -30 -87 -38 -12 -7 -24 -13 -27 -13 -4 1 -7 1 -8 0 -21 -6 -52 -11 -93
-16 -58 -6 -79 -24 -101 -85 -14 -41 -20 -141 -10 -183 8 -35 34 -91 48 -102
20 -15 57 -22 64 -12 3 6 11 5 20 -2 11 -9 14 -9 14 0 0 7 6 11 13 10 20 -4
79 12 132 36 28 13 53 24 58 24 4 0 21 8 37 16 17 9 30 13 30 9 0 -4 6 -2 13
4 10 8 157 56 164 54 2 -1 21 5 44 13 22 8 43 14 47 13 4 -1 14 1 22 4 25 9
103 30 130 34 14 3 33 7 43 10 10 3 34 8 54 10 20 3 42 9 49 15 8 7 14 7 19
-1 3 -6 11 -8 16 -5 9 6 35 13 74 20 56 11 80 17 89 23 6 3 16 7 21 7 6 0 30
7 55 14 147 43 196 56 300 78 63 14 124 27 135 29 11 2 36 6 55 10 52 9 65 12
65 14 0 1 23 3 50 5 61 4 118 12 142 19 10 3 34 8 53 10 19 3 46 8 60 11 14 3
43 8 65 11 22 3 59 9 83 14 29 5 42 4 42 -4 0 -7 3 -7 8 -1 8 11 63 14 427 18
233 3 263 1 290 -15 25 -14 34 -15 55 -5 57 28 85 136 66 251 -13 79 -50 127
-109 143 -22 6 -545 12 -551 6z"/>
</g>
</svg>
